<svg width="48" height="49" viewBox="0 0 48 49" fill="none" xmlns="http://www.w3.org/2000/svg">
<path d="M30.2263 35.4638H17.9508C17.1741 35.4638 16.5446 34.8343 16.5446 34.0576C16.5446 31.0521 15.3943 28.1711 13.3062 25.9456C10.7669 23.24 9.33791 19.7039 9.28261 15.9894C9.22329 12.0061 10.7482 8.22902 13.5757 5.35316C16.3882 2.49304 20.1115 0.913574 24.0596 0.90625H24.0889C28.0294 0.90625 31.7369 2.44104 34.5311 5.23011C37.3458 8.03932 38.896 11.7802 38.896 15.7631C38.896 19.5827 37.4542 23.2118 34.8361 25.9826C32.77 28.1692 31.6325 31.0367 31.6325 34.0576C31.6325 34.8339 31.0026 35.4638 30.2263 35.4638Z" fill="#FAB33F"/>
<path d="M30.0425 39.9447H18.1344C17.3576 39.9447 16.7281 39.3152 16.7281 38.5385C16.7281 37.7617 17.3576 37.1322 18.1344 37.1322H30.0425C30.8192 37.1322 31.4487 37.7617 31.4487 38.5385C31.4487 39.3152 30.8192 39.9447 30.0425 39.9447Z" fill="#FAB33F"/>
<path d="M30.0425 44.4257H18.1344C17.3576 44.4257 16.7281 43.7961 16.7281 43.0194C16.7281 42.243 17.3576 41.6132 18.1344 41.6132H30.0425C30.8192 41.6132 31.4487 42.243 31.4487 43.0194C31.4487 43.7961 30.8192 44.4257 30.0425 44.4257Z" fill="#FAB33F"/>
<path d="M27.8514 48.907H20.3254C19.549 48.907 18.9191 48.2771 18.9191 47.5007C18.9191 46.724 19.549 46.0945 20.3254 46.0945H27.8514C28.6281 46.0945 29.2576 46.724 29.2576 47.5007C29.2576 48.2771 28.6281 48.907 27.8514 48.907Z" fill="#FAB33F"/>
</svg>
