<?xml version="1.0" encoding="UTF-8" standalone="no"?>
<svg
   width="50"
   height="50"
   viewBox="0 0 50 50"
   fill="none"
   version="1.1"
   id="svg30"
   sodipodi:docname="chart-Icon.svg"
   inkscape:export-filename="chart-Icon.png"
   inkscape:export-xdpi="96"
   inkscape:export-ydpi="96"
   inkscape:version="1.2 (dc2aedaf03, 2022-05-15)"
   xmlns:inkscape="http://www.inkscape.org/namespaces/inkscape"
   xmlns:sodipodi="http://sodipodi.sourceforge.net/DTD/sodipodi-0.dtd"
   xmlns="http://www.w3.org/2000/svg"
   xmlns:svg="http://www.w3.org/2000/svg">
  <sodipodi:namedview
     id="namedview32"
     pagecolor="#ffffff"
     bordercolor="#000000"
     borderopacity="0.25"
     inkscape:showpageshadow="2"
     inkscape:pageopacity="0.0"
     inkscape:pagecheckerboard="0"
     inkscape:deskcolor="#d1d1d1"
     showgrid="false"
     inkscape:zoom="2.6222222"
     inkscape:cx="26.885593"
     inkscape:cy="28.983051"
     inkscape:window-width="1920"
     inkscape:window-height="1099"
     inkscape:window-x="0"
     inkscape:window-y="0"
     inkscape:window-maximized="1"
     inkscape:current-layer="g4" />
  <g
     filter="url(#filter0_d_0_90)"
     id="g4"
     transform="translate(-18,-16)">
    <circle
       cx="43"
       cy="41"
       r="25"
       fill="#7c4fcf"
       id="circle2" />
  </g>
  <g
     clip-path="url(#clip0_0_90)"
     id="g8"
     transform="translate(-18,-16)">
    <path
       d="m 37.544,41.9091 h -3.6364 c -0.5454,0 -0.9091,0.3636 -0.9091,0.9091 v 7.2727 c 0,0.5455 0.3637,0.9091 0.9091,0.9091 h 3.6364 c 0.5454,0 0.9091,-0.3636 0.9091,-0.9091 v -7.2727 c 0,-0.5455 -0.3637,-0.9091 -0.9091,-0.9091 z m 14.5454,-3.6364 h -3.6363 c -0.5455,0 -0.9091,0.3637 -0.9091,0.9091 v 10.9091 c 0,0.5455 0.3636,0.9091 0.9091,0.9091 h 3.6363 c 0.5455,0 0.9091,-0.3636 0.9091,-0.9091 V 39.1818 c 0,-0.5454 -0.3636,-0.9091 -0.9091,-0.9091 z M 44.8167,31 h -3.6363 c -0.5455,0 -0.9091,0.3636 -0.9091,0.9091 v 18.1818 c 0,0.5455 0.3636,0.9091 0.9091,0.9091 h 3.6363 c 0.5455,0 0.9091,-0.3636 0.9091,-0.9091 V 31.9091 C 45.7258,31.3636 45.3622,31 44.8167,31 Z"
       fill="#ffffff"
       id="path6" />
  </g>
  <defs
     id="defs28">
    <filter
       id="filter0_d_0_90"
       x="0"
       y="0"
       width="90"
       height="90"
       filterUnits="userSpaceOnUse"
       color-interpolation-filters="sRGB">
      <feFlood
         flood-opacity="0"
         result="BackgroundImageFix"
         id="feFlood10" />
      <feColorMatrix
         in="SourceAlpha"
         type="matrix"
         values="0 0 0 0 0 0 0 0 0 0 0 0 0 0 0 0 0 0 127 0"
         result="hardAlpha"
         id="feColorMatrix12" />
      <feOffset
         dx="2"
         dy="4"
         id="feOffset14" />
      <feGaussianBlur
         stdDeviation="10"
         id="feGaussianBlur16" />
      <feColorMatrix
         type="matrix"
         values="0 0 0 0 0.254902 0 0 0 0 0.254902 0 0 0 0 0.647059 0 0 0 0.25 0"
         id="feColorMatrix18" />
      <feBlend
         mode="normal"
         in2="BackgroundImageFix"
         result="effect1_dropShadow_0_90"
         id="feBlend20" />
      <feBlend
         mode="normal"
         in="SourceGraphic"
         in2="effect1_dropShadow_0_90"
         result="shape"
         id="feBlend22" />
    </filter>
    <clipPath
       id="clip0_0_90">
      <rect
         width="20"
         height="20"
         fill="#ffffff"
         transform="translate(33,31)"
         id="rect25"
         x="0"
         y="0" />
    </clipPath>
  </defs>
</svg>
