<?xml version="1.0" encoding="UTF-8" standalone="no"?>
<svg
   width="90"
   height="90"
   viewBox="0 0 90 90"
   fill="none"
   version="1.1"
   id="svg27"
   sodipodi:docname="cog-icon.svg"
   inkscape:version="1.2 (dc2aedaf03, 2022-05-15)"
   xmlns:inkscape="http://www.inkscape.org/namespaces/inkscape"
   xmlns:sodipodi="http://sodipodi.sourceforge.net/DTD/sodipodi-0.dtd"
   xmlns="http://www.w3.org/2000/svg"
   xmlns:svg="http://www.w3.org/2000/svg">
  <sodipodi:namedview
     id="namedview29"
     pagecolor="#ffffff"
     bordercolor="#000000"
     borderopacity="0.25"
     inkscape:showpageshadow="2"
     inkscape:pageopacity="0.0"
     inkscape:pagecheckerboard="0"
     inkscape:deskcolor="#d1d1d1"
     showgrid="false"
     inkscape:zoom="1.6054422"
     inkscape:cx="45.78178"
     inkscape:cy="73.5"
     inkscape:window-width="1920"
     inkscape:window-height="1099"
     inkscape:window-x="0"
     inkscape:window-y="0"
     inkscape:window-maximized="1"
     inkscape:current-layer="g4" />
  <g
     opacity="0.2"
     filter="url(#filter0_d_0_112)"
     id="g4"
     transform="translate(-27)">
    <circle
       cx="72"
       cy="45"
       r="45"
       fill="#ee2a52"
       id="circle2" />
  </g>
  <path
     d="m 63.8015,49.3834 -3.6767,-2.875 c 0.0467,-0.4434 0.0867,-0.9617 0.0867,-1.51 0,-0.5484 -0.0384,-1.0667 -0.0867,-1.51 l 3.68,-2.8767 c 0.6834,-0.54 0.87,-1.4983 0.435,-2.2966 L 60.4165,31.7 c -0.4084,-0.7466 -1.3034,-1.13 -2.2117,-0.795 l -4.3383,1.7416 c -0.8317,-0.6 -1.7034,-1.1066 -2.605,-1.5116 l -0.66,-4.6016 C 50.4931,25.66 49.7331,25 48.8348,25 h -7.6666 c -0.8984,0 -1.6566,0.66 -1.7634,1.52 l -0.6616,4.6184 c -0.8734,0.3933 -1.7316,0.8933 -2.6,1.5116 l -4.35,-1.7466 c -0.8151,-0.315 -1.7901,0.0382 -2.1951,0.7816 l -3.8283,6.6234 c -0.4516,0.7633 -0.265,1.755 0.4334,2.3083 l 3.6766,2.875 c -0.0583,0.5617 -0.0866,1.05 -0.0866,1.5084 0,0.4583 0.0284,0.9466 0.0866,1.51 l -3.68,2.8766 c -0.6833,0.5417 -0.8683,1.5 -0.4333,2.2967 l 3.8233,6.615 c 0.4084,0.745 1.295,1.1316 2.2117,0.795 l 4.3383,-1.7417 c 0.83,0.5984 1.7017,1.105 2.6034,1.5117 l 0.66,4.6 C 39.5115,64.34 40.2698,65 41.1698,65 h 7.6667 c 0.8983,0 1.6583,-0.66 1.765,-1.52 l 0.6616,-4.6166 c 0.8734,-0.395 1.73,-0.8934 2.6,-1.5134 l 4.35,1.7466 c 0.21,0.0817 0.4284,0.1234 0.6534,0.1234 0.6466,0 1.2416,-0.3534 1.5416,-0.9034 l 3.84,-6.65 c 0.4267,-0.78 0.24,-1.7382 -0.4466,-2.2832 z m -18.8,2.2832 c -3.6767,0 -6.6667,-2.99 -6.6667,-6.6666 0,-3.6766 2.99,-6.6666 6.6667,-6.6666 3.6766,0 6.6666,2.99 6.6666,6.6666 0,3.6766 -2.99,6.6666 -6.6666,6.6666 z"
     fill="#ee2a52"
     id="path6" />
  <defs
     id="defs25">
    <filter
       id="filter0_d_0_112"
       x="0"
       y="0"
       width="144"
       height="147"
       filterUnits="userSpaceOnUse"
       color-interpolation-filters="sRGB">
      <feFlood
         flood-opacity="0"
         result="BackgroundImageFix"
         id="feFlood8" />
      <feColorMatrix
         in="SourceAlpha"
         type="matrix"
         values="0 0 0 0 0 0 0 0 0 0 0 0 0 0 0 0 0 0 127 0"
         result="hardAlpha"
         id="feColorMatrix10" />
      <feMorphology
         radius="8"
         operator="erode"
         in="SourceAlpha"
         result="effect1_dropShadow_0_112"
         id="feMorphology12" />
      <feOffset
         dy="30"
         id="feOffset14" />
      <feGaussianBlur
         stdDeviation="17.5"
         id="feGaussianBlur16" />
      <feColorMatrix
         type="matrix"
         values="0 0 0 0 0.933333 0 0 0 0 0.164706 0 0 0 0 0.321569 0 0 0 0.12 0"
         id="feColorMatrix18" />
      <feBlend
         mode="normal"
         in2="BackgroundImageFix"
         result="effect1_dropShadow_0_112"
         id="feBlend20" />
      <feBlend
         mode="normal"
         in="SourceGraphic"
         in2="effect1_dropShadow_0_112"
         result="shape"
         id="feBlend22" />
    </filter>
  </defs>
</svg>
