<svg width="30" height="30" viewBox="0 0 30 30" fill="none" xmlns="http://www.w3.org/2000/svg">
<path d="M26.2501 0H3.75006C1.68194 0 6.10352e-05 1.68187 6.10352e-05 3.75V26.25C6.10352e-05 28.3181 1.68194 30 3.75006 30H26.2501C28.3182 30 30.0001 28.3181 30.0001 26.25V3.75C30.0001 1.68187 28.3182 0 26.2501 0Z" fill="#252525"/>
<path fill-rule="evenodd" clip-rule="evenodd" d="M18.967 13.293H16.5083V11.3477C16.5083 10.8108 16.9489 10.8613 17.4918 10.8613H18.4752V8.42969H16.5083C15.7258 8.42969 14.9753 8.73712 14.422 9.28435C13.8687 9.83158 13.5579 10.5738 13.5579 11.3477V13.293H11.5909V15.7247H13.5579V21.0743H16.5083V15.7247H17.9835L18.967 13.293Z" fill="white"/>
</svg>
