<svg width="31" height="30" viewBox="0 0 31 30" fill="none" xmlns="http://www.w3.org/2000/svg">
<path d="M24.0474 0H7.5147C3.79582 0 0.781067 3.01475 0.781067 6.73363V23.2664C0.781067 26.9852 3.79582 30 7.5147 30H24.0474C27.7663 30 30.7811 26.9852 30.7811 23.2664V6.73363C30.7811 3.01475 27.7663 0 24.0474 0Z" fill="#252525"/>
<path d="M12.2774 12.9765H9.87692V20.0064H12.2774V12.9765Z" fill="white"/>
<path d="M11.8739 9.69587C11.6451 9.55733 11.3762 9.4834 11.1012 9.4834C10.9177 9.4834 10.736 9.51632 10.5665 9.58028C10.3971 9.64423 10.2432 9.73796 10.1138 9.85607C9.98445 9.97418 9.88206 10.1143 9.81256 10.2685C9.74307 10.4226 9.70783 10.5877 9.70889 10.7543C9.71047 11.0039 9.79346 11.2475 9.94741 11.4543C10.1014 11.6612 10.3193 11.822 10.5739 11.9165C10.8284 12.0111 11.1081 12.0351 11.3777 11.9855C11.6472 11.9359 11.8946 11.815 12.0885 11.638C12.2824 11.461 12.4142 11.2358 12.4673 10.9909C12.5203 10.746 12.4923 10.4923 12.3867 10.2618C12.2811 10.0313 12.1026 9.8344 11.8739 9.69587Z" fill="white"/>
<path d="M16.1307 12.9762H13.8182L13.8102 20.0206H16.2107V16.542C16.2107 15.6269 16.4027 14.7409 17.651 14.7409C18.8993 14.7409 18.8993 15.7939 18.8993 16.6073V20.0061H21.2998V16.1498C21.2998 14.2544 20.8117 12.8019 18.4112 12.8019C17.9536 12.7856 17.4999 12.8824 17.0982 13.082C16.6966 13.2815 16.3622 13.5763 16.1307 13.9348V12.9762Z" fill="white"/>
</svg>
