<svg width="52" height="36" viewBox="0 0 52 36" fill="none" xmlns="http://www.w3.org/2000/svg">
<path d="M34.477 0.882097C31.4513 0.877809 28.4783 1.67388 25.8596 3.18956C28.4812 4.70202 30.658 6.87852 32.1708 9.49989C33.6836 12.1213 34.479 15.095 34.477 18.1216H17.2422C17.2422 21.5314 18.2534 24.8647 20.148 27.6998C22.0425 30.5349 24.7352 32.7445 27.8856 34.0492C31.0359 35.3539 34.5025 35.695 37.8467 35.0294C41.191 34.3639 44.2628 32.7215 46.6735 30.31C49.0843 27.8986 50.7259 24.8264 51.3905 21.4819C52.0552 18.1375 51.7131 14.671 50.4076 11.521C49.102 8.371 46.8916 5.67889 44.056 3.78516C41.2204 1.89143 37.8868 0.881158 34.477 0.882097V0.882097Z" fill="#2805FF"/>
<path d="M25.8596 3.18945C23.238 4.70191 21.0612 6.87841 19.5484 9.49979C18.0356 12.1212 17.2402 15.0949 17.2423 18.1215H34.477C34.479 15.0949 33.6836 12.1212 32.1708 9.49979C30.658 6.87841 28.4812 4.70191 25.8596 3.18945V3.18945Z" fill="url(#paint0_linear_0_27)"/>
<path d="M25.8595 3.18947C28.4811 4.70193 30.6579 6.87843 32.1707 9.49981C33.6835 12.1212 34.479 15.0949 34.4769 18.1215H17.2422C17.2409 21.1473 18.0367 24.12 19.5495 26.7405C21.0623 29.3609 23.2386 31.5367 25.8595 33.0488C23.2388 34.5619 20.2659 35.3585 17.2397 35.3586C14.2136 35.3586 11.2407 34.5621 8.61989 33.049C5.99912 31.536 3.82281 29.3597 2.3097 26.7389C0.796589 24.1182 0 21.1453 0 18.1191C0 15.0929 0.796589 12.12 2.3097 9.4993C3.82281 6.87855 5.99912 4.70227 8.61989 3.1892C11.2407 1.67613 14.2136 0.879591 17.2397 0.879639C20.2659 0.879686 23.2388 1.67632 25.8595 3.18947Z" fill="#FB1475"/>
<defs>
<linearGradient id="paint0_linear_0_27" x1="8.50619" y1="31.0689" x2="35.8206" y2="4.89393" gradientUnits="userSpaceOnUse">
<stop stop-color="#FFCF8E"/>
<stop offset="1" stop-color="#FF8B79"/>
</linearGradient>
</defs>
</svg>
