<svg width="264" height="31" viewBox="0 0 264 31" fill="none" xmlns="http://www.w3.org/2000/svg">
<rect width="264" height="2" fill="#BEBEBE"/>
<path d="M1.36719 15.5234H6.53125C7.55208 15.5234 8.375 15.8125 9 16.3906C9.625 16.9635 9.9375 17.7708 9.9375 18.8125C9.9375 19.7083 9.65885 20.4896 9.10156 21.1562C8.54427 21.8177 7.6875 22.1484 6.53125 22.1484H2.92188V27H1.36719V15.5234ZM8.36719 18.8203C8.36719 17.9766 8.05469 17.4036 7.42969 17.1016C7.08594 16.9401 6.61458 16.8594 6.01562 16.8594H2.92188V20.8359H6.01562C6.71354 20.8359 7.27865 20.6875 7.71094 20.3906C8.14844 20.0938 8.36719 19.5703 8.36719 18.8203ZM11.7422 18.6328H13.0781V20.0781C13.1875 19.7969 13.4557 19.4557 13.8828 19.0547C14.3099 18.6484 14.8021 18.4453 15.3594 18.4453C15.3854 18.4453 15.4297 18.4479 15.4922 18.4531C15.5547 18.4583 15.6615 18.4688 15.8125 18.4844V19.9688C15.7292 19.9531 15.651 19.9427 15.5781 19.9375C15.5104 19.9323 15.4349 19.9297 15.3516 19.9297C14.6432 19.9297 14.099 20.1589 13.7188 20.6172C13.3385 21.0703 13.1484 21.5938 13.1484 22.1875V27H11.7422V18.6328ZM20.3516 26.0938C21.2839 26.0938 21.9219 25.7422 22.2656 25.0391C22.6146 24.3307 22.7891 23.5443 22.7891 22.6797C22.7891 21.8984 22.6641 21.263 22.4141 20.7734C22.0182 20.0026 21.3359 19.6172 20.3672 19.6172C19.5078 19.6172 18.8828 19.9453 18.4922 20.6016C18.1016 21.2578 17.9062 22.0495 17.9062 22.9766C17.9062 23.8672 18.1016 24.6094 18.4922 25.2031C18.8828 25.7969 19.5026 26.0938 20.3516 26.0938ZM20.4062 18.3906C21.4844 18.3906 22.3958 18.75 23.1406 19.4688C23.8854 20.1875 24.2578 21.2448 24.2578 22.6406C24.2578 23.9896 23.9297 25.1042 23.2734 25.9844C22.6172 26.8646 21.599 27.3047 20.2188 27.3047C19.0677 27.3047 18.1536 26.9167 17.4766 26.1406C16.7995 25.3594 16.4609 24.3125 16.4609 23C16.4609 21.5938 16.8177 20.474 17.5312 19.6406C18.2448 18.8073 19.2031 18.3906 20.4062 18.3906ZM27.3438 18.6328V24.1875C27.3438 24.6146 27.4115 24.9635 27.5469 25.2344C27.7969 25.7344 28.263 25.9844 28.9453 25.9844C29.9245 25.9844 30.5911 25.5469 30.9453 24.6719C31.138 24.2031 31.2344 23.5599 31.2344 22.7422V18.6328H32.6406V27H31.3125L31.3281 25.7656C31.1458 26.0833 30.9193 26.3516 30.6484 26.5703C30.112 27.0078 29.4609 27.2266 28.6953 27.2266C27.5026 27.2266 26.6901 26.8281 26.2578 26.0312C26.0234 25.6042 25.9062 25.0339 25.9062 24.3203V18.6328H27.3438ZM35.7344 22.9141C35.7344 23.8099 35.9245 24.5599 36.3047 25.1641C36.6849 25.7682 37.2943 26.0703 38.1328 26.0703C38.7839 26.0703 39.3177 25.7917 39.7344 25.2344C40.1562 24.6719 40.3672 23.8672 40.3672 22.8203C40.3672 21.763 40.151 20.9818 39.7188 20.4766C39.2865 19.9661 38.7526 19.7109 38.1172 19.7109C37.4089 19.7109 36.8333 19.9818 36.3906 20.5234C35.9531 21.0651 35.7344 21.862 35.7344 22.9141ZM37.8516 18.4844C38.4922 18.4844 39.0286 18.6198 39.4609 18.8906C39.7109 19.0469 39.9948 19.3203 40.3125 19.7109V15.4844H41.6641V27H40.3984V25.8359C40.0703 26.3516 39.6823 26.724 39.2344 26.9531C38.7865 27.1823 38.2734 27.2969 37.6953 27.2969C36.763 27.2969 35.9557 26.9062 35.2734 26.125C34.5911 25.3385 34.25 24.2943 34.25 22.9922C34.25 21.7734 34.5599 20.7188 35.1797 19.8281C35.8047 18.9323 36.6953 18.4844 37.8516 18.4844ZM51.7344 26.0547C52.3906 26.0547 52.9349 25.7812 53.3672 25.2344C53.8047 24.6823 54.0234 23.8594 54.0234 22.7656C54.0234 22.099 53.9271 21.526 53.7344 21.0469C53.3698 20.125 52.7031 19.6641 51.7344 19.6641C50.7604 19.6641 50.0938 20.151 49.7344 21.125C49.5417 21.6458 49.4453 22.3073 49.4453 23.1094C49.4453 23.7552 49.5417 24.3047 49.7344 24.7578C50.099 25.6224 50.7656 26.0547 51.7344 26.0547ZM48.0938 18.6719H49.4609V19.7812C49.7422 19.401 50.0495 19.1068 50.3828 18.8984C50.8568 18.5859 51.4141 18.4297 52.0547 18.4297C53.0026 18.4297 53.8073 18.7943 54.4688 19.5234C55.1302 20.2474 55.4609 21.2839 55.4609 22.6328C55.4609 24.4557 54.9844 25.7578 54.0312 26.5391C53.4271 27.0339 52.724 27.2812 51.9219 27.2812C51.2917 27.2812 50.763 27.1432 50.3359 26.8672C50.0859 26.7109 49.8073 26.4427 49.5 26.0625V30.3359H48.0938V18.6719ZM58.1875 24.7734C58.1875 25.1797 58.3359 25.5 58.6328 25.7344C58.9297 25.9688 59.2812 26.0859 59.6875 26.0859C60.1823 26.0859 60.6615 25.9714 61.125 25.7422C61.9062 25.362 62.2969 24.7396 62.2969 23.875V22.7422C62.125 22.8516 61.9036 22.9427 61.6328 23.0156C61.362 23.0885 61.0964 23.1406 60.8359 23.1719L59.9844 23.2812C59.474 23.349 59.0911 23.4557 58.8359 23.6016C58.4036 23.8464 58.1875 24.237 58.1875 24.7734ZM61.5938 21.9297C61.9167 21.888 62.1328 21.7526 62.2422 21.5234C62.3047 21.3984 62.3359 21.2188 62.3359 20.9844C62.3359 20.5052 62.1641 20.1589 61.8203 19.9453C61.4818 19.7266 60.9948 19.6172 60.3594 19.6172C59.625 19.6172 59.1042 19.8151 58.7969 20.2109C58.625 20.4297 58.513 20.7552 58.4609 21.1875H57.1484C57.1745 20.1562 57.5078 19.4401 58.1484 19.0391C58.7943 18.6328 59.5417 18.4297 60.3906 18.4297C61.375 18.4297 62.1745 18.6172 62.7891 18.9922C63.3984 19.3672 63.7031 19.9505 63.7031 20.7422V25.5625C63.7031 25.7083 63.7318 25.8255 63.7891 25.9141C63.8516 26.0026 63.9792 26.0469 64.1719 26.0469C64.2344 26.0469 64.3047 26.0443 64.3828 26.0391C64.4609 26.0286 64.5443 26.0156 64.6328 26V27.0391C64.4141 27.1016 64.2474 27.1406 64.1328 27.1562C64.0182 27.1719 63.862 27.1797 63.6641 27.1797C63.1797 27.1797 62.8281 27.0078 62.6094 26.6641C62.4948 26.4818 62.4141 26.224 62.3672 25.8906C62.0807 26.2656 61.6693 26.5911 61.1328 26.8672C60.5964 27.1432 60.0052 27.2812 59.3594 27.2812C58.5833 27.2812 57.9479 27.0469 57.4531 26.5781C56.9635 26.1042 56.7188 25.513 56.7188 24.8047C56.7188 24.0286 56.9609 23.4271 57.4453 23C57.9297 22.5729 58.5651 22.3099 59.3516 22.2109L61.5938 21.9297ZM66.0547 18.6328H67.3906V20.0781C67.5 19.7969 67.7682 19.4557 68.1953 19.0547C68.6224 18.6484 69.1146 18.4453 69.6719 18.4453C69.6979 18.4453 69.7422 18.4479 69.8047 18.4531C69.8672 18.4583 69.974 18.4688 70.125 18.4844V19.9688C70.0417 19.9531 69.9635 19.9427 69.8906 19.9375C69.8229 19.9323 69.7474 19.9297 69.6641 19.9297C68.9557 19.9297 68.4115 20.1589 68.0312 20.6172C67.651 21.0703 67.4609 21.5938 67.4609 22.1875V27H66.0547V18.6328ZM71.625 16.2969H73.0469V18.6328H74.3828V19.7812H73.0469V25.2422C73.0469 25.5339 73.1458 25.7292 73.3438 25.8281C73.4531 25.8854 73.6354 25.9141 73.8906 25.9141C73.9583 25.9141 74.0312 25.9141 74.1094 25.9141C74.1875 25.9089 74.2786 25.901 74.3828 25.8906V27C74.2214 27.0469 74.0521 27.0807 73.875 27.1016C73.7031 27.1224 73.5156 27.1328 73.3125 27.1328C72.6562 27.1328 72.2109 26.9661 71.9766 26.6328C71.7422 26.2943 71.625 25.8568 71.625 25.3203V19.7812H70.4922V18.6328H71.625V16.2969ZM79.2812 18.4453C79.875 18.4453 80.4505 18.5859 81.0078 18.8672C81.5651 19.1432 81.9896 19.5026 82.2812 19.9453C82.5625 20.3672 82.75 20.8594 82.8438 21.4219C82.9271 21.8073 82.9688 22.4219 82.9688 23.2656H76.8359C76.862 24.1146 77.0625 24.7969 77.4375 25.3125C77.8125 25.8229 78.3932 26.0781 79.1797 26.0781C79.9141 26.0781 80.5 25.8359 80.9375 25.3516C81.1875 25.0703 81.3646 24.7448 81.4688 24.375H82.8516C82.8151 24.6823 82.6927 25.026 82.4844 25.4062C82.2812 25.7812 82.0521 26.0885 81.7969 26.3281C81.3698 26.7448 80.8411 27.026 80.2109 27.1719C79.8724 27.2552 79.4896 27.2969 79.0625 27.2969C78.0208 27.2969 77.138 26.9193 76.4141 26.1641C75.6901 25.4036 75.3281 24.3411 75.3281 22.9766C75.3281 21.6328 75.6927 20.5417 76.4219 19.7031C77.151 18.8646 78.1042 18.4453 79.2812 18.4453ZM81.5234 22.1484C81.4661 21.5391 81.3333 21.0521 81.125 20.6875C80.7396 20.0104 80.0964 19.6719 79.1953 19.6719C78.5495 19.6719 78.0078 19.9062 77.5703 20.375C77.1328 20.8385 76.901 21.4297 76.875 22.1484H81.5234ZM84.7422 18.6328H86.0781V20.0781C86.1875 19.7969 86.4557 19.4557 86.8828 19.0547C87.3099 18.6484 87.8021 18.4453 88.3594 18.4453C88.3854 18.4453 88.4297 18.4479 88.4922 18.4531C88.5547 18.4583 88.6615 18.4688 88.8125 18.4844V19.9688C88.7292 19.9531 88.651 19.9427 88.5781 19.9375C88.5104 19.9323 88.4349 19.9297 88.3516 19.9297C87.6432 19.9297 87.099 20.1589 86.7188 20.6172C86.3385 21.0703 86.1484 21.5938 86.1484 22.1875V27H84.7422V18.6328ZM90.0312 18.6328H91.3672V19.8203C91.763 19.3307 92.1823 18.9792 92.625 18.7656C93.0677 18.5521 93.5599 18.4453 94.1016 18.4453C95.2891 18.4453 96.0911 18.8594 96.5078 19.6875C96.737 20.1406 96.8516 20.7891 96.8516 21.6328V27H95.4219V21.7266C95.4219 21.2161 95.3464 20.8047 95.1953 20.4922C94.9453 19.9714 94.4922 19.7109 93.8359 19.7109C93.5026 19.7109 93.2292 19.7448 93.0156 19.8125C92.6302 19.9271 92.2917 20.1562 92 20.5C91.7656 20.776 91.612 21.0625 91.5391 21.3594C91.4714 21.651 91.4375 22.0703 91.4375 22.6172V27H90.0312V18.6328ZM104.469 24.7734C104.469 25.1797 104.617 25.5 104.914 25.7344C105.211 25.9688 105.562 26.0859 105.969 26.0859C106.464 26.0859 106.943 25.9714 107.406 25.7422C108.188 25.362 108.578 24.7396 108.578 23.875V22.7422C108.406 22.8516 108.185 22.9427 107.914 23.0156C107.643 23.0885 107.378 23.1406 107.117 23.1719L106.266 23.2812C105.755 23.349 105.372 23.4557 105.117 23.6016C104.685 23.8464 104.469 24.237 104.469 24.7734ZM107.875 21.9297C108.198 21.888 108.414 21.7526 108.523 21.5234C108.586 21.3984 108.617 21.2188 108.617 20.9844C108.617 20.5052 108.445 20.1589 108.102 19.9453C107.763 19.7266 107.276 19.6172 106.641 19.6172C105.906 19.6172 105.385 19.8151 105.078 20.2109C104.906 20.4297 104.794 20.7552 104.742 21.1875H103.43C103.456 20.1562 103.789 19.4401 104.43 19.0391C105.076 18.6328 105.823 18.4297 106.672 18.4297C107.656 18.4297 108.456 18.6172 109.07 18.9922C109.68 19.3672 109.984 19.9505 109.984 20.7422V25.5625C109.984 25.7083 110.013 25.8255 110.07 25.9141C110.133 26.0026 110.26 26.0469 110.453 26.0469C110.516 26.0469 110.586 26.0443 110.664 26.0391C110.742 26.0286 110.826 26.0156 110.914 26V27.0391C110.695 27.1016 110.529 27.1406 110.414 27.1562C110.299 27.1719 110.143 27.1797 109.945 27.1797C109.461 27.1797 109.109 27.0078 108.891 26.6641C108.776 26.4818 108.695 26.224 108.648 25.8906C108.362 26.2656 107.951 26.5911 107.414 26.8672C106.878 27.1432 106.286 27.2812 105.641 27.2812C104.865 27.2812 104.229 27.0469 103.734 26.5781C103.245 26.1042 103 25.513 103 24.8047C103 24.0286 103.242 23.4271 103.727 23C104.211 22.5729 104.846 22.3099 105.633 22.2109L107.875 21.9297ZM112.578 16.2969H114V18.6328H115.336V19.7812H114V25.2422C114 25.5339 114.099 25.7292 114.297 25.8281C114.406 25.8854 114.589 25.9141 114.844 25.9141C114.911 25.9141 114.984 25.9141 115.062 25.9141C115.141 25.9089 115.232 25.901 115.336 25.8906V27C115.174 27.0469 115.005 27.0807 114.828 27.1016C114.656 27.1224 114.469 27.1328 114.266 27.1328C113.609 27.1328 113.164 26.9661 112.93 26.6328C112.695 26.2943 112.578 25.8568 112.578 25.3203V19.7812H111.445V18.6328H112.578V16.2969ZM121.43 15.5234H123V20.2656H128.969V15.5234H130.539V27H128.969V21.6328H123V27H121.43V15.5234ZM134.172 18.6328V24.1875C134.172 24.6146 134.24 24.9635 134.375 25.2344C134.625 25.7344 135.091 25.9844 135.773 25.9844C136.753 25.9844 137.419 25.5469 137.773 24.6719C137.966 24.2031 138.062 23.5599 138.062 22.7422V18.6328H139.469V27H138.141L138.156 25.7656C137.974 26.0833 137.747 26.3516 137.477 26.5703C136.94 27.0078 136.289 27.2266 135.523 27.2266C134.331 27.2266 133.518 26.8281 133.086 26.0312C132.852 25.6042 132.734 25.0339 132.734 24.3203V18.6328H134.172ZM141.562 15.4844H142.93V19.6484C143.237 19.2474 143.604 18.9427 144.031 18.7344C144.458 18.5208 144.922 18.4141 145.422 18.4141C146.464 18.4141 147.307 18.7734 147.953 19.4922C148.604 20.2057 148.93 21.2604 148.93 22.6562C148.93 23.9792 148.609 25.0781 147.969 25.9531C147.328 26.8281 146.44 27.2656 145.305 27.2656C144.669 27.2656 144.133 27.112 143.695 26.8047C143.435 26.6224 143.156 26.3307 142.859 25.9297V27H141.562V15.4844ZM145.219 26.0234C145.979 26.0234 146.547 25.7214 146.922 25.1172C147.302 24.513 147.492 23.7161 147.492 22.7266C147.492 21.8464 147.302 21.1172 146.922 20.5391C146.547 19.9609 145.992 19.6719 145.258 19.6719C144.617 19.6719 144.055 19.9089 143.57 20.3828C143.091 20.8568 142.852 21.638 142.852 22.7266C142.852 23.513 142.951 24.151 143.148 24.6406C143.518 25.5625 144.208 26.0234 145.219 26.0234ZM151.414 24.375C151.456 24.8438 151.573 25.2031 151.766 25.4531C152.12 25.9062 152.734 26.1328 153.609 26.1328C154.13 26.1328 154.589 26.0208 154.984 25.7969C155.38 25.5677 155.578 25.2161 155.578 24.7422C155.578 24.3828 155.419 24.1094 155.102 23.9219C154.898 23.8073 154.497 23.6745 153.898 23.5234L152.781 23.2422C152.068 23.0651 151.542 22.8672 151.203 22.6484C150.599 22.2682 150.297 21.7422 150.297 21.0703C150.297 20.2786 150.581 19.638 151.148 19.1484C151.721 18.6589 152.49 18.4141 153.453 18.4141C154.714 18.4141 155.622 18.7839 156.18 19.5234C156.529 19.9922 156.698 20.4974 156.688 21.0391H155.359C155.333 20.7214 155.221 20.4323 155.023 20.1719C154.701 19.8021 154.141 19.6172 153.344 19.6172C152.812 19.6172 152.409 19.7188 152.133 19.9219C151.862 20.125 151.727 20.3932 151.727 20.7266C151.727 21.0911 151.906 21.3828 152.266 21.6016C152.474 21.7318 152.781 21.8464 153.188 21.9453L154.117 22.1719C155.128 22.4167 155.805 22.6536 156.148 22.8828C156.695 23.2422 156.969 23.8073 156.969 24.5781C156.969 25.3229 156.685 25.9661 156.117 26.5078C155.555 27.0495 154.695 27.3203 153.539 27.3203C152.294 27.3203 151.411 27.0391 150.891 26.4766C150.375 25.9089 150.099 25.2083 150.062 24.375H151.414ZM162.109 26.0547C162.766 26.0547 163.31 25.7812 163.742 25.2344C164.18 24.6823 164.398 23.8594 164.398 22.7656C164.398 22.099 164.302 21.526 164.109 21.0469C163.745 20.125 163.078 19.6641 162.109 19.6641C161.135 19.6641 160.469 20.151 160.109 21.125C159.917 21.6458 159.82 22.3073 159.82 23.1094C159.82 23.7552 159.917 24.3047 160.109 24.7578C160.474 25.6224 161.141 26.0547 162.109 26.0547ZM158.469 18.6719H159.836V19.7812C160.117 19.401 160.424 19.1068 160.758 18.8984C161.232 18.5859 161.789 18.4297 162.43 18.4297C163.378 18.4297 164.182 18.7943 164.844 19.5234C165.505 20.2474 165.836 21.2839 165.836 22.6328C165.836 24.4557 165.359 25.7578 164.406 26.5391C163.802 27.0339 163.099 27.2812 162.297 27.2812C161.667 27.2812 161.138 27.1432 160.711 26.8672C160.461 26.7109 160.182 26.4427 159.875 26.0625V30.3359H158.469V18.6719ZM170.805 26.0938C171.737 26.0938 172.375 25.7422 172.719 25.0391C173.068 24.3307 173.242 23.5443 173.242 22.6797C173.242 21.8984 173.117 21.263 172.867 20.7734C172.471 20.0026 171.789 19.6172 170.82 19.6172C169.961 19.6172 169.336 19.9453 168.945 20.6016C168.555 21.2578 168.359 22.0495 168.359 22.9766C168.359 23.8672 168.555 24.6094 168.945 25.2031C169.336 25.7969 169.956 26.0938 170.805 26.0938ZM170.859 18.3906C171.938 18.3906 172.849 18.75 173.594 19.4688C174.339 20.1875 174.711 21.2448 174.711 22.6406C174.711 23.9896 174.383 25.1042 173.727 25.9844C173.07 26.8646 172.052 27.3047 170.672 27.3047C169.521 27.3047 168.607 26.9167 167.93 26.1406C167.253 25.3594 166.914 24.3125 166.914 23C166.914 21.5938 167.271 20.474 167.984 19.6406C168.698 18.8073 169.656 18.3906 170.859 18.3906ZM176.672 16.2969H178.094V18.6328H179.43V19.7812H178.094V25.2422C178.094 25.5339 178.193 25.7292 178.391 25.8281C178.5 25.8854 178.682 25.9141 178.938 25.9141C179.005 25.9141 179.078 25.9141 179.156 25.9141C179.234 25.9089 179.326 25.901 179.43 25.8906V27C179.268 27.0469 179.099 27.0807 178.922 27.1016C178.75 27.1224 178.562 27.1328 178.359 27.1328C177.703 27.1328 177.258 26.9661 177.023 26.6328C176.789 26.2943 176.672 25.8568 176.672 25.3203V19.7812H175.539V18.6328H176.672V16.2969ZM188.836 19.9844C189.331 19.6354 189.672 19.3516 189.859 19.1328C190.167 18.7786 190.32 18.3854 190.32 17.9531C190.32 17.6146 190.208 17.3229 189.984 17.0781C189.76 16.8333 189.458 16.7109 189.078 16.7109C188.5 16.7109 188.099 16.9036 187.875 17.2891C187.76 17.487 187.703 17.7031 187.703 17.9375C187.703 18.2552 187.789 18.5599 187.961 18.8516C188.138 19.1432 188.43 19.5208 188.836 19.9844ZM188.477 26.0312C189.055 26.0312 189.552 25.8984 189.969 25.6328C190.385 25.3672 190.706 25.0703 190.93 24.7422L188.336 21.5781C187.602 22.0677 187.122 22.4427 186.898 22.7031C186.555 23.0938 186.383 23.5703 186.383 24.1328C186.383 24.7422 186.604 25.2109 187.047 25.5391C187.495 25.8672 187.971 26.0312 188.477 26.0312ZM187.555 20.6172C187.07 20.0599 186.745 19.5911 186.578 19.2109C186.417 18.8307 186.336 18.4635 186.336 18.1094C186.336 17.3698 186.586 16.7578 187.086 16.2734C187.586 15.7839 188.255 15.5391 189.094 15.5391C189.891 15.5391 190.513 15.7656 190.961 16.2188C191.409 16.6719 191.633 17.2135 191.633 17.8438C191.633 18.5781 191.401 19.2214 190.938 19.7734C190.667 20.0964 190.214 20.4688 189.578 20.8906L191.672 23.3906C191.812 22.974 191.909 22.6641 191.961 22.4609C192.018 22.2526 192.076 21.9635 192.133 21.5938H193.469C193.38 22.3281 193.203 23.0339 192.938 23.7109C192.672 24.3828 192.539 24.6536 192.539 24.5234L194.578 27H192.766L191.688 25.6875C191.26 26.151 190.87 26.4896 190.516 26.7031C189.896 27.0781 189.182 27.2656 188.375 27.2656C187.182 27.2656 186.315 26.9453 185.773 26.3047C185.232 25.6589 184.961 24.9323 184.961 24.125C184.961 23.2552 185.224 22.5286 185.75 21.9453C186.073 21.5911 186.674 21.1484 187.555 20.6172ZM201.625 23.2969C201.661 23.9479 201.815 24.4766 202.086 24.8828C202.602 25.6432 203.51 26.0234 204.812 26.0234C205.396 26.0234 205.927 25.9401 206.406 25.7734C207.333 25.4505 207.797 24.8724 207.797 24.0391C207.797 23.4141 207.602 22.9688 207.211 22.7031C206.815 22.4427 206.195 22.2161 205.352 22.0234L203.797 21.6719C202.781 21.4427 202.062 21.1901 201.641 20.9141C200.911 20.4349 200.547 19.7188 200.547 18.7656C200.547 17.7344 200.904 16.888 201.617 16.2266C202.331 15.5651 203.341 15.2344 204.648 15.2344C205.852 15.2344 206.872 15.526 207.711 16.1094C208.555 16.6875 208.977 17.6146 208.977 18.8906H207.516C207.438 18.276 207.271 17.8047 207.016 17.4766C206.542 16.8776 205.737 16.5781 204.602 16.5781C203.685 16.5781 203.026 16.7708 202.625 17.1562C202.224 17.5417 202.023 17.9896 202.023 18.5C202.023 19.0625 202.258 19.474 202.727 19.7344C203.034 19.901 203.729 20.1094 204.812 20.3594L206.422 20.7266C207.198 20.9036 207.797 21.1458 208.219 21.4531C208.948 21.9896 209.312 22.7682 209.312 23.7891C209.312 25.0599 208.849 25.9688 207.922 26.5156C207 27.0625 205.927 27.3359 204.703 27.3359C203.276 27.3359 202.159 26.9714 201.352 26.2422C200.544 25.5182 200.148 24.5365 200.164 23.2969H201.625ZM214.578 18.4453C215.172 18.4453 215.747 18.5859 216.305 18.8672C216.862 19.1432 217.286 19.5026 217.578 19.9453C217.859 20.3672 218.047 20.8594 218.141 21.4219C218.224 21.8073 218.266 22.4219 218.266 23.2656H212.133C212.159 24.1146 212.359 24.7969 212.734 25.3125C213.109 25.8229 213.69 26.0781 214.477 26.0781C215.211 26.0781 215.797 25.8359 216.234 25.3516C216.484 25.0703 216.661 24.7448 216.766 24.375H218.148C218.112 24.6823 217.99 25.026 217.781 25.4062C217.578 25.7812 217.349 26.0885 217.094 26.3281C216.667 26.7448 216.138 27.026 215.508 27.1719C215.169 27.2552 214.786 27.2969 214.359 27.2969C213.318 27.2969 212.435 26.9193 211.711 26.1641C210.987 25.4036 210.625 24.3411 210.625 22.9766C210.625 21.6328 210.99 20.5417 211.719 19.7031C212.448 18.8646 213.401 18.4453 214.578 18.4453ZM216.82 22.1484C216.763 21.5391 216.63 21.0521 216.422 20.6875C216.036 20.0104 215.393 19.6719 214.492 19.6719C213.846 19.6719 213.305 19.9062 212.867 20.375C212.43 20.8385 212.198 21.4297 212.172 22.1484H216.82ZM222.953 18.4844C223.609 18.4844 224.182 18.6458 224.672 18.9688C224.938 19.151 225.208 19.4167 225.484 19.7656V18.7109H226.781V26.3203C226.781 27.3828 226.625 28.2214 226.312 28.8359C225.729 29.9714 224.628 30.5391 223.008 30.5391C222.107 30.5391 221.349 30.3359 220.734 29.9297C220.12 29.5286 219.776 28.8984 219.703 28.0391H221.133C221.201 28.4141 221.336 28.7031 221.539 28.9062C221.857 29.2188 222.357 29.375 223.039 29.375C224.117 29.375 224.823 28.9948 225.156 28.2344C225.354 27.7865 225.445 26.987 225.43 25.8359C225.148 26.263 224.81 26.5807 224.414 26.7891C224.018 26.9974 223.495 27.1016 222.844 27.1016C221.938 27.1016 221.143 26.7812 220.461 26.1406C219.784 25.4948 219.445 24.4297 219.445 22.9453C219.445 21.5443 219.786 20.4505 220.469 19.6641C221.156 18.8776 221.984 18.4844 222.953 18.4844ZM225.484 22.7812C225.484 21.7448 225.271 20.9766 224.844 20.4766C224.417 19.9766 223.872 19.7266 223.211 19.7266C222.221 19.7266 221.544 20.1901 221.18 21.1172C220.987 21.612 220.891 22.2604 220.891 23.0625C220.891 24.0052 221.081 24.724 221.461 25.2188C221.846 25.7083 222.362 25.9531 223.008 25.9531C224.018 25.9531 224.729 25.4974 225.141 24.5859C225.37 24.0703 225.484 23.4688 225.484 22.7812ZM228.906 18.6328H230.297V19.8203C230.63 19.4089 230.932 19.1094 231.203 18.9219C231.667 18.6042 232.193 18.4453 232.781 18.4453C233.448 18.4453 233.984 18.6094 234.391 18.9375C234.62 19.125 234.828 19.401 235.016 19.7656C235.328 19.3177 235.695 18.987 236.117 18.7734C236.539 18.5547 237.013 18.4453 237.539 18.4453C238.664 18.4453 239.43 18.8516 239.836 19.6641C240.055 20.1016 240.164 20.6901 240.164 21.4297V27H238.703V21.1875C238.703 20.6302 238.562 20.2474 238.281 20.0391C238.005 19.8307 237.667 19.7266 237.266 19.7266C236.714 19.7266 236.237 19.9115 235.836 20.2812C235.44 20.651 235.242 21.2682 235.242 22.1328V27H233.812V21.5391C233.812 20.9714 233.745 20.5573 233.609 20.2969C233.396 19.9062 232.997 19.7109 232.414 19.7109C231.883 19.7109 231.398 19.9167 230.961 20.3281C230.529 20.7396 230.312 21.4844 230.312 22.5625V27H228.906V18.6328ZM245.719 18.4453C246.312 18.4453 246.888 18.5859 247.445 18.8672C248.003 19.1432 248.427 19.5026 248.719 19.9453C249 20.3672 249.188 20.8594 249.281 21.4219C249.365 21.8073 249.406 22.4219 249.406 23.2656H243.273C243.299 24.1146 243.5 24.7969 243.875 25.3125C244.25 25.8229 244.831 26.0781 245.617 26.0781C246.352 26.0781 246.938 25.8359 247.375 25.3516C247.625 25.0703 247.802 24.7448 247.906 24.375H249.289C249.253 24.6823 249.13 25.026 248.922 25.4062C248.719 25.7812 248.49 26.0885 248.234 26.3281C247.807 26.7448 247.279 27.026 246.648 27.1719C246.31 27.2552 245.927 27.2969 245.5 27.2969C244.458 27.2969 243.576 26.9193 242.852 26.1641C242.128 25.4036 241.766 24.3411 241.766 22.9766C241.766 21.6328 242.13 20.5417 242.859 19.7031C243.589 18.8646 244.542 18.4453 245.719 18.4453ZM247.961 22.1484C247.904 21.5391 247.771 21.0521 247.562 20.6875C247.177 20.0104 246.534 19.6719 245.633 19.6719C244.987 19.6719 244.445 19.9062 244.008 20.375C243.57 20.8385 243.339 21.4297 243.312 22.1484H247.961ZM251.141 18.6328H252.477V19.8203C252.872 19.3307 253.292 18.9792 253.734 18.7656C254.177 18.5521 254.669 18.4453 255.211 18.4453C256.398 18.4453 257.201 18.8594 257.617 19.6875C257.846 20.1406 257.961 20.7891 257.961 21.6328V27H256.531V21.7266C256.531 21.2161 256.456 20.8047 256.305 20.4922C256.055 19.9714 255.602 19.7109 254.945 19.7109C254.612 19.7109 254.339 19.7448 254.125 19.8125C253.74 19.9271 253.401 20.1562 253.109 20.5C252.875 20.776 252.721 21.0625 252.648 21.3594C252.581 21.651 252.547 22.0703 252.547 22.6172V27H251.141V18.6328ZM260.328 16.2969H261.75V18.6328H263.086V19.7812H261.75V25.2422C261.75 25.5339 261.849 25.7292 262.047 25.8281C262.156 25.8854 262.339 25.9141 262.594 25.9141C262.661 25.9141 262.734 25.9141 262.812 25.9141C262.891 25.9089 262.982 25.901 263.086 25.8906V27C262.924 27.0469 262.755 27.0807 262.578 27.1016C262.406 27.1224 262.219 27.1328 262.016 27.1328C261.359 27.1328 260.914 26.9661 260.68 26.6328C260.445 26.2943 260.328 25.8568 260.328 25.3203V19.7812H259.195V18.6328H260.328V16.2969Z" fill="#2F2F2F"/>
</svg>
