<?xml version="1.0" encoding="UTF-8" standalone="no"?>
<svg
   width="90"
   height="90"
   viewBox="0 0 90 90"
   fill="none"
   version="1.1"
   id="svg34"
   sodipodi:docname="rocket-Icon.svg"
   inkscape:version="1.2 (dc2aedaf03, 2022-05-15)"
   xmlns:inkscape="http://www.inkscape.org/namespaces/inkscape"
   xmlns:sodipodi="http://sodipodi.sourceforge.net/DTD/sodipodi-0.dtd"
   xmlns="http://www.w3.org/2000/svg"
   xmlns:svg="http://www.w3.org/2000/svg">
  <sodipodi:namedview
     id="namedview36"
     pagecolor="#ffffff"
     bordercolor="#000000"
     borderopacity="0.25"
     inkscape:showpageshadow="2"
     inkscape:pageopacity="0.0"
     inkscape:pagecheckerboard="0"
     inkscape:deskcolor="#d1d1d1"
     showgrid="false"
     inkscape:zoom="1.6054422"
     inkscape:cx="45.78178"
     inkscape:cy="73.5"
     inkscape:window-width="1920"
     inkscape:window-height="1099"
     inkscape:window-x="0"
     inkscape:window-y="0"
     inkscape:window-maximized="1"
     inkscape:current-layer="g4" />
  <g
     opacity="0.2"
     filter="url(#filter0_d_0_103)"
     id="g4"
     transform="translate(-27)">
    <circle
       cx="72"
       cy="45"
       r="45"
       fill="#fab33f"
       id="circle2" />
  </g>
  <g
     clip-path="url(#clip0_0_103)"
     id="g10"
     transform="translate(-27)">
    <path
       d="m 91.18,25.0048 c -7.8083,-0.14 -16.7133,3.9417 -22.35,10.2734 -5.3867,0.1016 -10.6317,2.31 -14.4933,6.1716 -0.225,0.2217 -0.305,0.5534 -0.2067,0.8534 0.1,0.3016 0.36,0.52 0.6733,0.565 l 6.4234,0.92 -0.7934,0.8883 c -0.295,0.33 -0.28,0.8317 0.0334,1.145 l 10.7117,10.7117 c 0.1616,0.1616 0.375,0.2433 0.59,0.2433 0.1983,0 0.3966,-0.07 0.555,-0.2117 l 0.8883,-0.7933 0.92,6.4233 c 0.045,0.3134 0.2917,0.5434 0.59,0.6434 0.0767,0.025 0.1567,0.0366 0.2383,0.0366 0.2367,0 0.4784,-0.1033 0.645,-0.2683 3.8084,-3.8083 6.0167,-9.0533 6.1184,-14.44 6.3383,-5.6483 10.4533,-14.55 10.2716,-22.3483 -0.0117,-0.4434 -0.37,-0.8017 -0.815,-0.8134 z M 83.5,39.3915 c -0.8116,0.8117 -1.8783,1.2183 -2.9466,1.2183 -1.0684,0 -2.135,-0.4066 -2.9467,-1.2183 -1.6233,-1.625 -1.6233,-4.2683 0,-5.8933 1.625,-1.625 4.2683,-1.625 5.8933,0 1.625,1.625 1.625,4.27 0,5.8933 z"
       fill="#fcc101"
       id="path6" />
    <path
       d="m 56.54,53.1758 c -1.7833,1.7833 -4.2317,9.84 -4.505,10.7517 -0.0883,0.2933 -0.0067,0.6116 0.2083,0.8283 0.16,0.16 0.3717,0.245 0.59,0.245 0.08,0 0.16,-0.0117 0.24,-0.035 0.9117,-0.2733 8.9684,-2.7217 10.7517,-4.505 2.0083,-2.0083 2.0083,-5.2767 0,-7.285 -2.01,-2.0083 -5.2767,-2.0067 -7.285,0 z"
       fill="#fcc101"
       id="path8" />
  </g>
  <defs
     id="defs32">
    <filter
       id="filter0_d_0_103"
       x="0"
       y="0"
       width="144"
       height="147"
       filterUnits="userSpaceOnUse"
       color-interpolation-filters="sRGB">
      <feFlood
         flood-opacity="0"
         result="BackgroundImageFix"
         id="feFlood12" />
      <feColorMatrix
         in="SourceAlpha"
         type="matrix"
         values="0 0 0 0 0 0 0 0 0 0 0 0 0 0 0 0 0 0 127 0"
         result="hardAlpha"
         id="feColorMatrix14" />
      <feMorphology
         radius="8"
         operator="erode"
         in="SourceAlpha"
         result="effect1_dropShadow_0_103"
         id="feMorphology16" />
      <feOffset
         dy="30"
         id="feOffset18" />
      <feGaussianBlur
         stdDeviation="17.5"
         id="feGaussianBlur20" />
      <feColorMatrix
         type="matrix"
         values="0 0 0 0 0.980392 0 0 0 0 0.701961 0 0 0 0 0.247059 0 0 0 0.15 0"
         id="feColorMatrix22" />
      <feBlend
         mode="normal"
         in2="BackgroundImageFix"
         result="effect1_dropShadow_0_103"
         id="feBlend24" />
      <feBlend
         mode="normal"
         in="SourceGraphic"
         in2="effect1_dropShadow_0_103"
         result="shape"
         id="feBlend26" />
    </filter>
    <clipPath
       id="clip0_0_103">
      <rect
         width="40"
         height="40"
         fill="#ffffff"
         transform="translate(52,25)"
         id="rect29"
         x="0"
         y="0" />
    </clipPath>
  </defs>
</svg>
