<svg width="112" height="29" viewBox="0 0 112 29" fill="none" xmlns="http://www.w3.org/2000/svg">
<path fill-rule="evenodd" clip-rule="evenodd" d="M10.4492 0.0546875C8.87382 0.0558496 7.59882 1.3318 7.59998 2.90407C7.59882 4.47635 8.87499 5.75229 10.4504 5.75346H13.3008V2.90523C13.302 1.33296 12.0258 0.0570116 10.4492 0.0546875C10.4504 0.0546875 10.4504 0.0546875 10.4492 0.0546875V0.0546875ZM10.4492 7.65459H2.85043C1.27501 7.65576 -0.00116121 8.9317 3.18214e-06 10.504C-0.0023256 12.0763 1.27385 13.3522 2.84927 13.3545H10.4492C12.0247 13.3534 13.3008 12.0774 13.2997 10.5051C13.3008 8.9317 12.0247 7.65576 10.4492 7.65459V7.65459Z" fill="#C4C4C4"/>
<path fill-rule="evenodd" clip-rule="evenodd" d="M28.4996 10.504C28.5008 8.9317 27.2246 7.65576 25.6492 7.65459C24.0737 7.65576 22.7976 8.9317 22.7987 10.504V13.3545H25.6492C27.2246 13.3534 28.5008 12.0774 28.4996 10.504ZM20.8996 10.504V2.90407C20.9008 1.33296 19.6258 0.0570116 18.0504 0.0546875C16.4749 0.0558496 15.1988 1.3318 15.1999 2.90407V10.504C15.1976 12.0763 16.4738 13.3522 18.0492 13.3545C19.6246 13.3534 20.9008 12.0774 20.8996 10.504Z" fill="#C4C4C4"/>
<path fill-rule="evenodd" clip-rule="evenodd" d="M18.0492 28.5542C19.6246 28.553 20.9008 27.2771 20.8996 25.7048C20.9008 24.1325 19.6246 22.8566 18.0492 22.8554H15.1987V25.7048C15.1976 27.2759 16.4737 28.5519 18.0492 28.5542ZM18.0492 20.9531H25.6491C27.2246 20.9519 28.5007 19.676 28.4996 18.1037C28.5019 16.5314 27.2257 15.2555 25.6503 15.2532H18.0503C16.4749 15.2543 15.1987 16.5303 15.1999 18.1026C15.1987 19.676 16.4737 20.9519 18.0492 20.9531V20.9531Z" fill="#C4C4C4"/>
<path fill-rule="evenodd" clip-rule="evenodd" d="M0.000275454 18.1038C-0.000888936 19.6761 1.27528 20.952 2.8507 20.9532C4.42612 20.952 5.7023 19.6761 5.70113 18.1038V15.2544H2.8507C1.27528 15.2556 -0.000888936 16.5315 0.000275454 18.1038ZM7.60025 18.1038V25.7037C7.59792 27.276 8.8741 28.5519 10.4495 28.5542C12.0249 28.5531 13.3011 27.2771 13.2999 25.7049V18.1061C13.3023 16.5338 12.0261 15.2579 10.4507 15.2556C8.8741 15.2556 7.59909 16.5315 7.60025 18.1038C7.60025 18.1049 7.60025 18.1038 7.60025 18.1038Z" fill="#C4C4C4"/>
<path d="M36.8718 20.6921L39.5733 19.1187C40.7608 20.8604 42.3046 21.7312 44.2046 21.7312C45.1348 21.7312 45.8671 21.5531 46.4014 21.1968C46.9556 20.8208 47.2327 20.326 47.2327 19.7125C47.2327 19.2177 47.0051 18.7823 46.5499 18.4062C46.1145 18.0302 45.6494 17.7531 45.1546 17.575C44.6598 17.377 43.9176 17.1198 42.928 16.8031C42.7499 16.7437 42.6212 16.7041 42.5421 16.6843C41.8296 16.4468 41.2259 16.2192 40.7311 16.0015C40.2561 15.764 39.7514 15.4573 39.2171 15.0812C38.6827 14.6854 38.277 14.2005 37.9999 13.6265C37.7228 13.0328 37.5843 12.35 37.5843 11.5781C37.5843 10.0739 38.2176 8.86665 39.4843 7.95623C40.7509 7.04582 42.3244 6.59061 44.2046 6.59061C45.6098 6.59061 46.9358 6.96665 48.1827 7.71873C49.4296 8.45102 50.3598 9.39113 50.9733 10.539L48.4796 12.0531C47.3118 10.45 45.8967 9.64842 44.2342 9.64842C43.3238 9.64842 42.6212 9.83644 42.1264 10.2125C41.6514 10.5687 41.4139 11.0437 41.4139 11.6375C41.4139 12.1323 41.6218 12.5776 42.0374 12.9734C42.4728 13.3495 42.9181 13.6265 43.3733 13.8047C43.8285 13.9828 44.4717 14.2104 45.303 14.4875C45.5207 14.5468 45.679 14.5963 45.778 14.6359C49.3009 15.764 51.0624 17.4661 51.0624 19.7421C51.0624 21.1473 50.4686 22.3447 49.2811 23.3343C48.1134 24.3041 46.4509 24.789 44.2936 24.789C42.6311 24.789 41.1468 24.4229 39.8405 23.6906C38.5541 22.9583 37.5645 21.9588 36.8718 20.6921Z" fill="#C4C4C4"/>
<path d="M54.328 24.2546V0H58.0686V24.2546H54.328Z" fill="#C4C4C4"/>
<path d="M65.253 19.4453C65.253 20.0786 65.5003 20.613 65.9951 21.0484C66.5097 21.464 67.1826 21.6718 68.0139 21.6718C69.2014 21.6718 70.2108 21.276 71.042 20.4843C71.893 19.6927 72.3186 18.6536 72.3186 17.3671V15.7937C71.4082 16.0114 70.3097 16.2192 69.0233 16.4172C66.5097 16.813 65.253 17.8224 65.253 19.4453ZM61.453 19.7718C61.453 16.5458 63.8477 14.5765 68.6373 13.864C70.379 13.6067 71.6061 13.3692 72.3186 13.1515V12.2312C72.3186 11.4 72.0217 10.7469 71.4279 10.2719C70.8342 9.79685 70.0425 9.55935 69.0529 9.55935C67.1727 9.55935 65.5498 10.3312 64.1842 11.875L61.8983 9.9156C62.7889 8.86665 63.8477 8.05519 65.0748 7.48123C66.3217 6.88749 67.628 6.59061 68.9936 6.59061C71.5467 6.59061 73.3675 7.21405 74.4561 8.46092C75.5446 9.688 76.0889 11.4099 76.0889 13.6265V24.2546H72.4373V22.1171C72.0811 22.8494 71.4576 23.4828 70.567 24.0171C69.6962 24.5317 68.667 24.789 67.4795 24.789C65.5993 24.789 64.1248 24.3239 63.0561 23.3937C61.9873 22.4635 61.453 21.2562 61.453 19.7718Z" fill="#C4C4C4"/>
<path d="M78.9686 15.7047C78.9686 12.9536 79.7008 10.7469 81.1654 9.08436C82.6498 7.42186 84.5597 6.59061 86.8951 6.59061C88.5972 6.59061 90.0321 7.10519 91.1998 8.13436C92.3675 9.16352 93.0998 10.3411 93.3966 11.6672L90.1904 12.5578C89.9529 11.8057 89.5472 11.1625 88.9732 10.6281C88.3993 10.0739 87.7165 9.79685 86.9248 9.79685C85.6383 9.79685 84.629 10.3609 83.8967 11.489C83.1842 12.6172 82.8279 14.0224 82.8279 15.7047C82.8279 17.5651 83.2139 19.0099 83.9857 20.039C84.7576 21.0682 85.7373 21.5828 86.9248 21.5828C87.7956 21.5828 88.5576 21.2859 89.2107 20.6921C89.8836 20.0786 90.3487 19.3859 90.606 18.614L93.8123 19.5343C93.4362 20.9197 92.6149 22.1468 91.3482 23.2156C90.0815 24.2645 88.5972 24.789 86.8951 24.789C84.5597 24.789 82.6498 23.9677 81.1654 22.325C79.7008 20.6625 78.9686 18.4557 78.9686 15.7047Z" fill="#C4C4C4"/>
<path d="M96.6326 24.2546V0H100.373V13.9531L106.459 7.12498H111.179L104.856 14.1015L111.565 24.2546H107.172L102.422 16.7437L100.373 19V24.2546H96.6326Z" fill="#C4C4C4"/>
</svg>
