<svg width="31" height="30" viewBox="0 0 31 30" fill="none" xmlns="http://www.w3.org/2000/svg">
<path d="M30.8576 25.8333C30.8576 26.9384 30.4186 27.9982 29.6372 28.7796C28.8558 29.561 27.796 30 26.6909 30H5.02427C3.9192 30 2.8594 29.561 2.07799 28.7796C1.29659 27.9982 0.857605 26.9384 0.857605 25.8333V4.16667C0.857605 3.0616 1.29659 2.00179 2.07799 1.22039C2.8594 0.438987 3.9192 0 5.02427 0H26.6909C27.796 0 28.8558 0.438987 29.6372 1.22039C30.4186 2.00179 30.8576 3.0616 30.8576 4.16667V25.8333Z" fill="#252525"/>
<path d="M21.6521 11.5953C21.2261 11.7904 20.6866 11.9736 20.2032 12.0345C20.6948 11.733 21.4748 11.1051 21.6521 10.5371C21.1928 10.8161 20.3621 11.1141 19.8202 11.2219C19.3875 10.7477 18.7703 10.5371 18.0864 10.5371C16.7728 10.5371 15.8566 11.6876 15.8566 13.0328V14.031C13.9248 14.031 12.0413 12.5102 10.8691 11.0362C10.6572 11.4077 10.5459 11.8313 10.547 12.2626C10.547 13.1705 11.354 14.0919 11.993 14.5301C11.6032 14.5177 10.8653 14.2102 10.5441 14.031V14.0595C10.5441 15.2409 11.3463 16.043 12.4334 16.2666C12.2349 16.323 11.993 16.5267 11.0618 16.5267C11.3642 17.4925 12.884 18.0031 13.9248 18.0241C13.1105 18.6764 11.6588 19.0223 10.5441 19.0223C10.3514 19.0223 10.2471 19.0333 10.0612 19.0108C11.113 19.6996 12.5822 20.0206 13.9248 20.0206C18.2989 20.0206 20.6862 16.5676 20.6862 13.3472C20.6862 13.2414 20.6828 12.887 20.6775 12.7832C21.145 12.4428 21.3343 12.0864 21.6521 11.5953Z" fill="white"/>
</svg>
