<svg width="149" height="30" viewBox="0 0 149 30" fill="none" xmlns="http://www.w3.org/2000/svg">
<path d="M42.8655 16.2567C43.6279 15.5768 44.143 14.5672 44.4314 13.2073C44.5139 12.7334 44.5757 12.2183 44.5757 11.6826C44.5757 11.0851 44.452 10.4463 44.2048 9.80758C43.8957 9.00401 43.4836 8.57132 42.9891 8.4683C42.2474 8.32407 41.5262 8.73616 40.8463 9.74577C40.29 10.5287 39.9397 11.3529 39.7542 12.1977C39.6512 12.6716 39.61 13.1867 39.61 13.7018C39.61 14.2993 39.7337 14.9381 39.9809 15.5768C40.29 16.3804 40.702 16.8131 41.1966 16.9161C41.7117 17.0191 42.268 16.7925 42.8655 16.2567Z" fill="#C4C4C4"/>
<path d="M31.5129 13.2073C31.2244 14.5672 30.7093 15.5768 29.947 16.2567C29.3494 16.7925 28.7931 17.0191 28.278 16.9161C27.7835 16.8131 27.3714 16.3804 27.0624 15.5768C26.8151 14.9381 26.6915 14.2993 26.6915 13.7018C26.6915 13.1867 26.7327 12.6716 26.8357 12.1977C27.0212 11.3529 27.3714 10.5287 27.9277 9.74577C28.6077 8.73616 29.3288 8.32407 30.0706 8.4683C30.5651 8.57132 30.9772 9.00401 31.2863 9.80758C31.5335 10.4463 31.6571 11.0851 31.6571 11.6826C31.6571 12.2183 31.6159 12.7334 31.5129 13.2073Z" fill="#C4C4C4"/>
<path fill-rule="evenodd" clip-rule="evenodd" d="M4.89208 0H45.9153C48.5114 0 50.6131 2.10164 50.6131 4.69778V20.3571C50.6131 22.9532 48.5114 25.0549 45.9153 25.0549H31.2038L33.223 29.9999L24.3426 25.0549H4.91269C2.31654 25.0549 0.214902 22.9532 0.214902 20.3571V4.69778C0.194298 2.12224 2.29594 0 4.89208 0ZM2.72866 4.26499C3.01712 3.87351 3.44981 3.66746 4.02673 3.62625C5.07755 3.54383 5.67508 4.03834 5.81931 5.10977C6.45804 9.41607 7.15859 13.063 7.90034 16.0507L12.4127 7.45866C12.8248 6.67569 13.3399 6.26361 13.958 6.2224C14.8646 6.16059 15.4209 6.7375 15.6476 7.95316C16.1627 10.6935 16.822 13.0218 17.605 14.9998C18.1407 9.76634 19.0473 5.99575 20.3248 3.66746C20.6338 3.09054 21.0871 2.80208 21.6846 2.76087C22.1585 2.71967 22.5912 2.8639 22.9827 3.17296C23.3742 3.48203 23.5802 3.8735 23.6214 4.3474C23.642 4.71828 23.5802 5.02735 23.4154 5.33641C22.6118 6.81993 21.9525 9.31305 21.4168 12.7746C20.9017 16.1331 20.7162 18.7498 20.8399 20.6248C20.8811 21.1399 20.7987 21.5932 20.5926 21.9847C20.3454 22.438 19.9745 22.6853 19.5006 22.7265C18.9649 22.7677 18.4085 22.5204 17.8728 21.9641C15.9566 20.0067 14.4319 17.0809 13.3193 13.1867C11.98 15.824 10.991 17.802 10.3523 19.1207C9.1366 21.449 8.10639 22.644 7.24101 22.7059C6.68469 22.7471 6.21079 22.2732 5.7987 21.2842C4.74788 18.585 3.61465 13.3721 2.39899 5.64548C2.33718 5.10977 2.4402 4.63587 2.72866 4.26499ZM47.0276 7.4999C46.2858 6.20183 45.1938 5.41886 43.7309 5.1098C43.3394 5.02738 42.9685 4.98617 42.6183 4.98617C40.6402 4.98617 39.0331 6.01639 37.7762 8.07682C36.7048 9.82819 36.1691 11.765 36.1691 13.8872C36.1691 15.4738 36.4988 16.8337 37.1581 17.9669C37.8999 19.265 38.9919 20.0479 40.4548 20.357C40.8463 20.4394 41.2172 20.4806 41.5674 20.4806C43.5661 20.4806 45.1732 19.4504 46.4095 17.39C47.4809 15.618 48.0166 13.6812 48.0166 11.559C48.0166 9.95181 47.6869 8.61253 47.0276 7.4999ZM30.8124 5.1098C32.2547 5.41886 33.3673 6.20183 34.1091 7.4999C34.7684 8.61253 35.0981 9.95181 35.0981 11.559C35.0981 13.6812 34.5623 15.618 33.4909 17.39C32.2547 19.4504 30.6475 20.4806 28.6489 20.4806C28.2986 20.4806 27.9278 20.4394 27.5363 20.357C26.0734 20.0479 24.9813 19.265 24.2396 17.9669C23.5802 16.8337 23.2506 15.4738 23.2506 13.8872C23.2506 11.765 23.7863 9.82819 24.8577 8.07682C26.1146 6.01639 27.7217 4.98617 29.6997 4.98617C30.05 4.98617 30.4209 5.02738 30.8124 5.1098Z" fill="#C4C4C4"/>
<path d="M53.7655 12.507C53.7655 10.4054 54.4455 8.67462 55.826 7.31474C57.2065 5.95485 58.9372 5.2749 61.0389 5.29551C61.8424 5.29551 62.6048 5.37793 63.2847 5.56337V8.90127C62.543 8.69522 61.863 8.5922 61.2243 8.5922C60.2353 8.5922 59.4317 8.96308 58.7724 9.72544C58.1337 10.4672 57.804 11.4356 57.804 12.61C57.804 13.8669 58.1336 14.8559 58.793 15.5977C59.4523 16.3188 60.3177 16.6897 61.4097 16.6897C61.9454 16.6897 62.5636 16.5867 63.2847 16.3806V19.7185C62.5018 19.9452 61.7806 20.0482 61.1419 20.0482C58.9372 20.0482 57.1652 19.3477 55.8054 17.9672C54.4455 16.5867 53.7655 14.7529 53.7655 12.507Z" fill="#C4C4C4"/>
<path fill-rule="evenodd" clip-rule="evenodd" d="M65.6748 7.1705C66.7463 5.91364 68.2298 5.2749 70.1254 5.2749C72.1446 5.2749 73.6899 5.91364 74.7819 7.1705C75.8534 8.44797 76.3891 10.2612 76.3891 12.61C76.3891 14.9589 75.8534 16.7927 74.8025 18.0908C73.7517 19.3889 72.2476 20.0482 70.2902 20.0482C68.271 20.0482 66.7257 19.3889 65.6748 18.0908C64.624 16.7927 64.0883 14.9177 64.0883 12.4658C64.0883 10.1993 64.6034 8.42737 65.6748 7.1705ZM70.1254 16.8545C70.8259 16.8545 71.3822 16.5661 71.7531 15.9892C72.124 15.4122 72.33 14.2584 72.3506 12.5688C72.3506 9.82846 71.6089 8.46857 70.1666 8.46857C68.7861 8.46857 68.1061 9.80786 68.1061 12.507C68.1061 14.2584 68.271 15.4122 68.6212 15.9892C68.9715 16.5661 69.466 16.8545 70.1254 16.8545Z" fill="#C4C4C4"/>
<path d="M85.8259 8.81885L86.5676 5.66639H91.4714L93.367 19.6979H89.6171L88.6074 10.0551L86.2585 19.6979H83.7036L81.2517 10.0345L80.2833 19.6979H76.6981L78.4907 5.66639H83.2709C83.9509 8.69523 84.4866 11.2914 84.8781 13.4754L85.2902 11.2914C85.455 10.4466 85.6404 9.62242 85.8259 8.81885Z" fill="#C4C4C4"/>
<path d="M102.989 8.81885L103.731 5.66639H108.614L110.51 19.6979H106.76L105.75 10.0551L103.422 19.6979H100.867L98.4151 10.0345L97.4467 19.6979H93.8615L95.6541 5.66639H100.434C101.114 8.69523 101.65 11.2914 102.041 13.4754L102.454 11.2914C102.618 10.4466 102.804 9.62242 102.989 8.81885Z" fill="#C4C4C4"/>
<path d="M118.752 14.1554H115.393V16.7309H119.287V19.7185H111.602V5.68699H119.267V8.67462H115.393V11.2502H118.752V14.1554Z" fill="#C4C4C4"/>
<path fill-rule="evenodd" clip-rule="evenodd" d="M130.558 9.95209C130.558 10.632 130.352 11.2914 129.96 11.9301C129.569 12.5688 128.992 13.0427 128.271 13.3724L131.3 19.6979H127.302L124.232 13.3106H124.17V19.6979H120.379V5.66639H124.789C126.561 5.66639 127.982 6.05787 129.013 6.82023C130.043 7.58259 130.558 8.63341 130.558 9.95209ZM124.15 8.36555V11.7035C125.819 11.6829 126.664 11.1883 126.664 10.2199C126.664 9.5606 126.478 9.10731 126.087 8.81885C125.695 8.53039 125.056 8.38616 124.15 8.36555Z" fill="#C4C4C4"/>
<path d="M130.723 12.507C130.723 10.4054 131.403 8.67462 132.783 7.31474C134.164 5.95485 135.915 5.2749 137.996 5.29551C138.8 5.29551 139.562 5.37793 140.242 5.56337V8.90127C139.5 8.69522 138.82 8.5922 138.181 8.5922C137.192 8.5922 136.389 8.96308 135.73 9.72544C135.091 10.4672 134.761 11.4356 134.761 12.61C134.761 13.8669 135.091 14.8559 135.75 15.5977C136.409 16.3188 137.275 16.6897 138.367 16.6897C138.903 16.6897 139.521 16.5867 140.242 16.3806V19.7185C139.459 19.9452 138.738 20.0482 138.099 20.0482C135.894 20.0482 134.122 19.3477 132.762 17.9672C131.403 16.5867 130.723 14.7529 130.723 12.507Z" fill="#C4C4C4"/>
<path d="M145.084 14.1348V16.7103H148.999V19.6979H141.313V5.66639H148.978V8.65402H145.084V11.2296H148.442V14.1348H145.084Z" fill="#C4C4C4"/>
</svg>
